<svg width="200" height="46" viewBox="0 0 288 56" fill="none" xmlns="http://www.w3.org/2000/svg">
<path fill-rule="evenodd" clip-rule="evenodd" d="M31.3958 20.8502C29.729 9.67724 33.5486 7.31491 36.7863 5.31284C38.609 4.18517 40.2219 3.18777 40.2219 0.431641H41.4123C41.4123 3.84591 39.5329 5.00851 37.4093 6.32177C34.4784 8.13464 31.0201 10.2734 32.5724 20.6781L31.3958 20.8502Z" fill="#C2C3C2"/>
<path fill-rule="evenodd" clip-rule="evenodd" d="M30.1596 19.6265H33.741C34.0077 19.6265 34.2255 19.8443 34.2255 20.111V21.9523C34.2255 22.2188 34.0077 22.4371 33.741 22.4371H30.1596C29.8931 22.4371 29.675 22.2188 29.675 21.9523V20.111C29.675 19.8443 29.8931 19.6265 30.1596 19.6265Z" fill="#656568"/>
<path fill-rule="evenodd" clip-rule="evenodd" d="M48.9421 16.0695C47.0054 16.2192 45.3002 17.0455 45.7946 18.1277C46.1737 18.9574 48.046 19.6888 50.379 19.4818C52.2538 19.3154 53.8476 18.51 53.4376 17.4598C53.1089 16.6172 51.2654 15.8898 48.9421 16.0695Z" fill="#3F3D45"/>
<path fill-rule="evenodd" clip-rule="evenodd" d="M13.5923 15.9196C11.6559 16.0691 9.95047 16.8956 10.4451 17.9773C10.8239 18.8075 12.6962 19.5388 15.0293 19.3319C16.9038 19.1652 18.4978 18.3603 18.0877 17.3096C17.7591 16.4671 15.9155 15.7399 13.5923 15.9196Z" fill="#3F3D45"/>
<path fill-rule="evenodd" clip-rule="evenodd" d="M10.5752 25.0473C10.3442 25.2697 10.1524 25.3105 10.0329 25.6385C9.77184 26.3551 9.74258 28.1449 9.35464 28.4263C9.23098 28.5158 9.11418 28.5439 8.98124 28.6107C8.07824 29.0626 7.10031 29.8825 6.45797 30.548C5.23464 31.8145 4.93251 33.0305 4.53057 34.5178L0.911774 48.4334C-0.778627 55.3865 7.55958 58.2021 12.585 52.5625C13.9418 51.0398 16.9826 47.8443 17.9566 46.6077C18.2102 46.7518 17.9584 46.5901 18.1295 46.7317C18.9484 47.4099 19.425 47.7779 20.703 48.219C23.1309 49.0578 25.7523 48.5708 27.6708 47.1691C28.5554 46.5233 28.932 45.9482 29.5308 44.8687L34.2291 44.8685C34.6466 45.7821 35.2631 46.6963 36.0454 47.2116C38.154 48.6019 40.4698 49.037 43.1283 48.1829C44.6199 47.7038 45.2654 46.8921 45.8289 46.5766C46.0577 46.9823 50.5787 51.8777 51.232 52.6098C55.8727 57.8147 63.1346 55.1803 63.3104 50.6008C63.3465 49.6595 60.5526 39.6014 60.4287 39.0928C60.1449 37.9287 59.0453 33.4611 58.6623 32.6296C57.8015 30.7625 56.2289 29.2351 54.2 28.3608C54.2 27.7789 54.0289 27.0363 53.9293 26.5451C53.8743 26.2722 53.8288 25.8776 53.7417 25.6387C53.622 25.3107 53.4305 25.2699 53.1995 25.0474C50.4561 24.4261 48.2209 24.6139 45.8953 25.0375C45.1998 25.4469 45.2605 25.7431 45.1249 26.5119C45.0162 27.1265 44.8522 27.7981 44.7947 28.3608L19.6749 28.3675C19.2204 28.3699 19.0962 28.4253 18.9413 28.1501L18.577 26.0823C18.4855 25.5078 18.3454 25.3119 17.8792 25.0375C15.8368 24.5159 13.5411 24.2433 10.5752 25.0473Z" fill="#656568"/>
<path fill-rule="evenodd" clip-rule="evenodd" d="M10.5752 18.0776C10.3442 18.3512 10.1524 18.4011 10.0329 18.804C9.77184 19.6841 9.74258 21.8827 9.35464 22.228C9.23098 22.3382 9.11418 22.3728 8.98124 22.4547C8.07824 23.0098 7.10031 24.0173 6.45797 24.8344C5.23464 26.3904 4.93251 27.8838 4.53057 29.7104L0.911774 46.804C-0.778627 55.3446 7.55958 58.8028 12.585 51.876C13.9418 50.0056 16.9826 46.0803 17.9566 44.5612C18.2102 44.7384 17.9584 44.5401 18.1295 44.7139C18.9484 45.5468 19.425 45.9989 20.703 46.5405C23.1309 47.5708 25.7523 46.9724 27.6708 45.2511C28.5554 44.458 28.932 43.751 29.5308 42.4249H34.2291C34.6466 43.5469 35.2631 44.6702 36.0454 45.3032C38.154 47.0108 40.4698 47.5456 43.1283 46.4963C44.6199 45.9078 45.2654 44.9106 45.8289 44.523C46.0577 45.0218 50.5787 51.0343 51.232 51.9341C55.8727 58.3279 63.1346 55.0912 63.3104 49.4664C63.3465 48.3104 60.5526 35.9552 60.4287 35.3305C60.1449 33.9004 59.0453 28.4128 58.6623 27.3916C57.8015 25.0979 56.2289 23.2214 54.2 22.148C54.2 21.4331 54.0289 20.5205 53.9293 19.9172C53.8743 19.5819 53.8288 19.0976 53.7417 18.8041C53.622 18.4012 53.4305 18.3513 53.1995 18.0776C50.4561 17.3146 48.2209 17.5454 45.8953 18.0656C45.1998 18.568 45.2605 18.9328 45.1249 19.8764C45.0162 20.6318 44.8522 21.4569 44.7947 22.148L19.6749 22.1561C19.2204 22.1588 19.0962 22.2266 18.9413 21.8891L18.577 19.3491C18.4855 18.6435 18.3454 18.4026 17.8792 18.0656C15.8368 17.4253 13.5411 17.0902 10.5752 18.0776Z" fill="#878E95"/>
<path fill-rule="evenodd" clip-rule="evenodd" d="M10.5751 18.0778C10.3441 18.3515 10.1523 18.4014 10.0328 18.8043C9.77174 19.6844 9.74247 21.883 9.35454 22.2283C9.23087 22.3384 9.11407 22.3731 8.98114 22.455C8.07814 23.0101 7.1002 24.0176 6.45787 24.8347C5.23454 26.3906 4.9324 27.8841 4.53047 29.7107L0.911669 46.8043C0.433736 49.218 0.757535 51.2252 1.5804 52.7074C5.94134 51.5734 10.8486 49.7512 15.9068 47.4275C16.7697 46.2674 17.5468 45.2012 17.9566 44.5615C18.2101 44.7387 17.9583 44.5404 18.1295 44.7142C18.5666 45.1586 18.9066 45.495 19.3223 45.7944C32.9309 39.0271 46.9596 29.001 53.8387 19.2873C53.8116 19.1084 53.7807 18.9368 53.7415 18.8042C53.6218 18.4013 53.4303 18.3514 53.1993 18.0778C50.4559 17.3147 48.2207 17.5456 45.8951 18.0657C45.1996 18.5682 45.2603 18.933 45.1247 19.8766C45.016 20.632 44.852 21.457 44.7945 22.1481L19.6747 22.1562C19.2202 22.159 19.096 22.2268 18.9411 21.8892L18.5768 19.3492C18.4853 18.6436 18.3452 18.4028 17.8791 18.0657C15.8367 17.4256 13.541 17.0905 10.5751 18.0778Z" fill="#959DA4"/>
<path fill-rule="evenodd" clip-rule="evenodd" d="M22.4105 35.9305C20.1437 36.3228 18.1477 38.4857 18.7263 41.3193C19.1701 43.492 21.3617 45.4071 24.0919 44.8651C26.2865 44.4292 28.1521 42.3206 27.672 39.5701C27.2873 37.3645 25.1298 35.4599 22.4105 35.9305Z" fill="#4E4D52"/>
<path fill-rule="evenodd" clip-rule="evenodd" d="M22.5901 36.9644C20.8468 37.2658 19.3115 38.9296 19.7568 41.1087C20.0978 42.7797 21.7832 44.2528 23.8832 43.8354C25.5707 43.5005 27.0054 41.8792 26.6364 39.7635C26.3404 38.0672 24.681 36.6025 22.5901 36.9644Z" fill="#0C050D"/>
<path fill-rule="evenodd" clip-rule="evenodd" d="M39.8616 35.8975C37.5519 36.2468 35.5977 38.3817 36.0274 41.1383C36.3751 43.3664 38.5178 45.3181 41.2437 44.8977C43.5039 44.5491 45.4222 42.455 45.0238 39.7127C44.7016 37.496 42.5208 35.4955 39.8616 35.8975Z" fill="#4E4D52"/>
<path fill-rule="evenodd" clip-rule="evenodd" d="M43.7208 28.2558C40.7766 29.0155 42.0276 33.3179 44.8492 32.5575C47.6402 31.8053 46.5094 27.5357 43.7208 28.2558Z" fill="#3F3D45"/>
<path fill-rule="evenodd" clip-rule="evenodd" d="M48.8077 23.0939C45.9872 23.999 47.3086 28.2025 50.1011 27.3381C52.9693 26.4504 51.5206 22.2236 48.8077 23.0939Z" fill="#3F3D45"/>
<path fill-rule="evenodd" clip-rule="evenodd" d="M48.9653 33.4668C45.972 34.237 47.2337 38.4901 50.0446 37.7626C51.0449 37.5038 51.9742 36.3749 51.5894 35.0065C51.3205 34.0493 50.3 33.1237 48.9653 33.4668Z" fill="#3F3D45"/>
<path fill-rule="evenodd" clip-rule="evenodd" d="M54.0561 28.3077C51.1655 29.1947 52.5118 33.4475 55.3955 32.5189C56.3619 32.2079 57.1392 31.0839 56.7982 29.797C56.5347 28.8008 55.3652 27.9057 54.0561 28.3077Z" fill="#3F3D45"/>
<path fill-rule="evenodd" clip-rule="evenodd" d="M16.0751 35.9808C16.2627 35.5383 16.1863 34.6636 16.1912 34.0591C16.1991 33.0069 16.2694 33.0828 15.6956 32.5233C14.6833 31.5369 14.4942 30.9371 13.2375 32.2117C12.8277 32.6272 12.4705 32.7437 12.4447 33.4751C12.337 36.5329 12.3886 36.0649 14.0401 36.0594C14.6965 36.0572 15.45 36.1588 16.0751 35.9808Z" fill="#3F3D45"/>
<path fill-rule="evenodd" clip-rule="evenodd" d="M12.5152 24.851C12.422 25.3113 12.3318 27.4756 12.5508 27.8835C12.5518 27.8835 13.811 29.5015 14.5055 29.3393C14.8426 29.179 16.0307 28.044 16.1342 27.7959C16.2857 27.4324 16.206 25.2712 16.1244 24.882C15.0921 24.706 13.5834 24.7625 12.5152 24.851Z" fill="#3F3D45"/>
<path fill-rule="evenodd" clip-rule="evenodd" d="M8.68762 29.1771C8.68762 32.9018 8.14035 32.2975 11.2562 32.2975C11.9819 32.2975 13.2234 30.8485 13.236 30.4525C13.2532 29.9075 12.7618 29.5987 12.4913 29.3307C11.4907 28.338 11.8162 28.5677 9.25722 28.5677C8.69275 28.5677 8.68762 28.6129 8.68762 29.1771Z" fill="#3F3D45"/>
<path fill-rule="evenodd" clip-rule="evenodd" d="M17.4132 32.2975L19.9068 32.2623L19.9542 29.177C19.9524 28.3181 19.4886 28.5676 17.2895 28.5676C16.6336 28.5676 15.3941 29.8838 15.4106 30.4554C15.4248 30.9564 15.9325 31.2903 16.1982 31.5553C16.5818 31.9376 16.7081 32.2975 17.4132 32.2975Z" fill="#3F3D45"/>
<path fill-rule="evenodd" clip-rule="evenodd" d="M24.9944 30.7527C24.9944 31.3333 24.9479 31.3493 25.1495 31.7692C25.7823 31.9133 27.692 31.9462 28.225 31.7103C28.2665 31.3978 28.3973 30.2901 28.1741 30.0634C27.9823 29.8689 26.1154 29.9341 25.7838 29.9341C25.0298 29.934 24.9944 30.0152 24.9944 30.7527Z" fill="#3F3D45"/>
<path fill-rule="evenodd" clip-rule="evenodd" d="M35.4776 30.4524C35.4776 31.6367 35.3237 32.0696 36.0649 32.0219C36.4268 31.9983 36.7897 31.8456 37.1471 31.7151L38.7178 31.1841C39.1158 31.0258 38.9845 31.1504 39.1101 30.853C38.8593 30.5722 36.5251 29.9404 36.1561 29.8826C35.5501 29.7879 35.4776 29.8754 35.4776 30.4524Z" fill="#3F3D45"/>
<path fill-rule="evenodd" clip-rule="evenodd" d="M39.9796 36.8708C38.2366 37.1727 36.7016 38.8363 37.1466 41.0154C37.488 42.6863 39.1735 44.1595 41.2732 43.7427C42.9609 43.4071 44.3956 41.7859 44.0264 39.6706C43.7306 37.9741 42.071 36.5091 39.9796 36.8708Z" fill="#0C050D"/>
<path d="M88.216 44.32C85.8053 44.32 83.7147 43.8613 81.944 42.944C80.1733 42.0267 78.8187 40.704 77.88 38.976C76.9413 37.248 76.472 35.2 76.472 32.832C76.472 30.464 76.9413 28.416 77.88 26.688C78.8187 24.9387 80.1627 23.6053 81.912 22.688C83.6827 21.7493 85.7627 21.28 88.152 21.28C90.136 21.28 91.9707 21.6213 93.656 22.304C95.3413 22.9867 96.5893 23.8933 97.4 25.024C97.656 25.3653 97.784 25.7173 97.784 26.08C97.784 26.6133 97.496 27.0933 96.92 27.52C96.664 27.712 96.344 27.808 95.96 27.808C95.64 27.808 95.32 27.744 95 27.616C94.68 27.4667 94.4133 27.264 94.2 27.008C93.4747 26.176 92.632 25.5787 91.672 25.216C90.712 24.832 89.5387 24.64 88.152 24.64C85.8267 24.64 84.0133 25.3653 82.712 26.816C81.4107 28.2453 80.76 30.2507 80.76 32.832C80.76 35.392 81.4107 37.3867 82.712 38.816C84.0347 40.2453 85.8693 40.96 88.216 40.96C90.1573 40.96 91.672 40.5867 92.76 39.84C93.8693 39.0933 94.424 38.0587 94.424 36.736V36.032C94.424 35.584 94.3173 35.2747 94.104 35.104C93.912 34.9333 93.5707 34.848 93.08 34.848H88.888C88.2907 34.848 87.8213 34.7093 87.48 34.432C87.1387 34.1333 86.968 33.728 86.968 33.216C86.968 32.6827 87.128 32.2773 87.448 32C87.7893 31.7013 88.2693 31.552 88.888 31.552H95.096C96.3333 31.552 97.24 31.8187 97.816 32.352C98.392 32.864 98.68 33.6853 98.68 34.816V36.064C98.68 37.6853 98.2427 39.1253 97.368 40.384C96.4933 41.6213 95.256 42.592 93.656 43.296C92.0773 43.9787 90.264 44.32 88.216 44.32ZM107.56 44.32C106.237 44.32 105.064 44.096 104.04 43.648C103.037 43.2 102.248 42.5813 101.672 41.792C101.117 40.9813 100.84 40.0533 100.84 39.008C100.84 37.4293 101.49 36.1707 102.792 35.232C104.114 34.2933 105.896 33.824 108.135 33.824C110.077 33.824 111.634 34.24 112.808 35.072V34.304C112.808 33.3013 112.498 32.5333 111.88 32C111.261 31.4667 110.365 31.2 109.192 31.2C107.442 31.2 105.938 31.5733 104.68 32.32C104.146 32.6187 103.688 32.768 103.304 32.768C102.834 32.768 102.418 32.5547 102.056 32.128C101.821 31.8293 101.704 31.52 101.704 31.2C101.704 30.6667 101.981 30.1973 102.536 29.792C103.304 29.2373 104.274 28.8 105.448 28.48C106.621 28.16 107.858 28 109.16 28C111.634 28 113.576 28.5653 114.984 29.696C116.413 30.8053 117.128 32.3413 117.128 34.304V42.528C117.128 43.0827 116.936 43.52 116.552 43.84C116.189 44.16 115.688 44.32 115.048 44.32C114.386 44.32 113.874 44.1707 113.512 43.872C113.149 43.5733 112.968 43.1467 112.968 42.592V42.24C111.752 43.6267 109.949 44.32 107.56 44.32ZM108.552 41.376C109.896 41.376 110.941 41.1733 111.688 40.768C112.456 40.3413 112.84 39.7547 112.84 39.008C112.84 38.304 112.456 37.7387 111.688 37.312C110.92 36.8853 109.896 36.672 108.616 36.672C107.464 36.672 106.568 36.8747 105.928 37.28C105.309 37.6853 105 38.2613 105 39.008C105 39.7547 105.309 40.3413 105.928 40.768C106.546 41.1733 107.421 41.376 108.552 41.376ZM121.99 44.32C121.328 44.32 120.816 44.1493 120.454 43.808C120.091 43.4667 119.91 42.9973 119.91 42.4V29.92C119.91 29.3227 120.091 28.8533 120.454 28.512C120.816 28.1707 121.328 28 121.99 28C122.63 28 123.142 28.1707 123.526 28.512C123.91 28.8533 124.102 29.3227 124.102 29.92V30.688C124.592 29.8347 125.211 29.1733 125.958 28.704C126.704 28.2347 127.515 28 128.39 28C129.286 28 130.096 28.2453 130.822 28.736C131.547 29.2053 132.091 29.856 132.454 30.688C133.968 28.896 135.686 28 137.606 28C139.312 28 140.646 28.5973 141.606 29.792C142.566 30.9867 143.046 32.6507 143.046 34.784V42.4C143.046 42.9973 142.854 43.4667 142.47 43.808C142.086 44.1493 141.574 44.32 140.934 44.32C140.272 44.32 139.76 44.1493 139.398 43.808C139.035 43.4667 138.854 42.9973 138.854 42.4V34.528C138.854 33.4827 138.662 32.6933 138.278 32.16C137.915 31.6053 137.371 31.328 136.646 31.328C136.027 31.328 135.483 31.4987 135.014 31.84C134.544 32.1813 134.107 32.7253 133.702 33.472V42.4C133.702 42.9973 133.51 43.4667 133.126 43.808C132.742 44.1493 132.23 44.32 131.59 44.32C130.928 44.32 130.416 44.1493 130.054 43.808C129.691 43.4667 129.51 42.9973 129.51 42.4V35.2C129.51 32.6187 128.774 31.328 127.302 31.328C126.299 31.328 125.51 31.7227 124.934 32.512C124.379 33.3013 124.102 34.3893 124.102 35.776V42.4C124.102 42.9973 123.91 43.4667 123.526 43.808C123.142 44.1493 122.63 44.32 121.99 44.32ZM154.552 44.32C152.717 44.32 151.117 43.9893 149.752 43.328C148.386 42.6667 147.33 41.7387 146.584 40.544C145.858 39.328 145.496 37.9093 145.496 36.288C145.496 33.664 146.253 31.6267 147.768 30.176C149.304 28.7253 151.458 28 154.232 28C155.938 28 157.442 28.2667 158.744 28.8C160.066 29.3333 161.09 30.08 161.816 31.04C162.562 31.9787 162.936 33.056 162.936 34.272C162.936 35.296 162.605 36.0853 161.944 36.64C161.304 37.1947 160.386 37.472 159.192 37.472H149.56C149.56 38.6667 149.976 39.5733 150.808 40.192C151.661 40.7893 152.909 41.088 154.552 41.088C156.28 41.088 157.752 40.704 158.968 39.936C159.65 39.5093 160.184 39.296 160.568 39.296C160.93 39.296 161.282 39.4667 161.624 39.808C161.986 40.1707 162.168 40.5653 162.168 40.992C162.168 41.504 161.954 41.9093 161.528 42.208C160.632 42.8907 159.586 43.4133 158.392 43.776C157.197 44.1387 155.917 44.32 154.552 44.32ZM157.912 34.528C158.274 34.528 158.53 34.464 158.68 34.336C158.829 34.1867 158.904 33.952 158.904 33.632C158.904 32.8853 158.477 32.2987 157.624 31.872C156.792 31.4453 155.661 31.232 154.232 31.232C152.802 31.232 151.672 31.5307 150.84 32.128C150.029 32.7253 149.624 33.5253 149.624 34.528H157.912ZM167.646 44.32C166.984 44.32 166.472 44.1493 166.11 43.808C165.747 43.4667 165.566 42.9973 165.566 42.4V29.92C165.566 29.3013 165.736 28.832 166.078 28.512C166.44 28.1707 166.942 28 167.582 28C168.222 28 168.723 28.1707 169.086 28.512C169.448 28.8533 169.63 29.3227 169.63 29.92V30.976C170.291 30.1227 171.059 29.472 171.934 29.024C172.83 28.5547 173.79 28.32 174.814 28.32H175.518C176.2 28.32 176.723 28.4693 177.086 28.768C177.47 29.0453 177.662 29.4507 177.662 29.984C177.662 30.5173 177.47 30.9333 177.086 31.232C176.723 31.5093 176.2 31.648 175.518 31.648H174.43C173 31.648 171.859 32.1067 171.006 33.024C170.174 33.92 169.758 35.1573 169.758 36.736V42.4C169.758 42.9973 169.566 43.4667 169.182 43.808C168.798 44.1493 168.286 44.32 167.646 44.32ZM182.092 44.32C181.452 44.32 180.94 44.1493 180.556 43.808C180.172 43.4667 179.98 42.9973 179.98 42.4V23.2C179.98 22.6027 180.172 22.1333 180.556 21.792C180.94 21.4507 181.452 21.28 182.092 21.28C182.732 21.28 183.244 21.4613 183.628 21.824C184.033 22.1653 184.236 22.624 184.236 23.2V30.848H195.724V23.2C195.724 22.624 195.916 22.1653 196.3 21.824C196.705 21.4613 197.228 21.28 197.868 21.28C198.508 21.28 199.02 21.4507 199.404 21.792C199.788 22.1333 199.98 22.6027 199.98 23.2V42.4C199.98 42.9973 199.788 43.4667 199.404 43.808C199.02 44.1493 198.508 44.32 197.868 44.32C197.228 44.32 196.705 44.1493 196.3 43.808C195.916 43.4453 195.724 42.976 195.724 42.4V34.144H184.236V42.4C184.236 42.976 184.033 43.4453 183.628 43.808C183.244 44.1493 182.732 44.32 182.092 44.32ZM212.469 44.32C210.613 44.32 208.96 43.9893 207.509 43.328C206.08 42.6453 204.96 41.6853 204.149 40.448C203.339 39.2107 202.933 37.7813 202.933 36.16C202.933 34.5387 203.339 33.1093 204.149 31.872C204.96 30.6347 206.08 29.6853 207.509 29.024C208.96 28.3413 210.613 28 212.469 28C214.325 28 215.968 28.3413 217.397 29.024C218.848 29.6853 219.979 30.6347 220.789 31.872C221.6 33.1093 222.005 34.5387 222.005 36.16C222.005 37.7813 221.6 39.2107 220.789 40.448C219.979 41.6853 218.848 42.6453 217.397 43.328C215.968 43.9893 214.325 44.32 212.469 44.32ZM212.469 40.992C214.112 40.992 215.403 40.5653 216.341 39.712C217.301 38.8587 217.781 37.6747 217.781 36.16C217.781 34.6453 217.301 33.4613 216.341 32.608C215.403 31.7547 214.112 31.328 212.469 31.328C210.827 31.328 209.525 31.7547 208.565 32.608C207.627 33.4613 207.157 34.6453 207.157 36.16C207.157 37.6747 207.627 38.8587 208.565 39.712C209.525 40.5653 210.827 40.992 212.469 40.992ZM233.032 44.32C231.176 44.32 229.522 43.9893 228.072 43.328C226.642 42.6453 225.522 41.6853 224.712 40.448C223.901 39.2107 223.496 37.7813 223.496 36.16C223.496 34.5387 223.901 33.1093 224.712 31.872C225.522 30.6347 226.642 29.6853 228.072 29.024C229.522 28.3413 231.176 28 233.032 28C234.888 28 236.53 28.3413 237.96 29.024C239.41 29.6853 240.541 30.6347 241.352 31.872C242.162 33.1093 242.568 34.5387 242.568 36.16C242.568 37.7813 242.162 39.2107 241.352 40.448C240.541 41.6853 239.41 42.6453 237.96 43.328C236.53 43.9893 234.888 44.32 233.032 44.32ZM233.032 40.992C234.674 40.992 235.965 40.5653 236.904 39.712C237.864 38.8587 238.344 37.6747 238.344 36.16C238.344 34.6453 237.864 33.4613 236.904 32.608C235.965 31.7547 234.674 31.328 233.032 31.328C231.389 31.328 230.088 31.7547 229.128 32.608C228.189 33.4613 227.72 34.6453 227.72 36.16C227.72 37.6747 228.189 38.8587 229.128 39.712C230.088 40.5653 231.389 40.992 233.032 40.992ZM253.415 44.32C251.751 44.32 250.268 44 248.967 43.36C247.687 42.6987 246.684 41.7493 245.959 40.512C245.233 39.2747 244.871 37.824 244.871 36.16C244.871 34.496 245.212 33.056 245.895 31.84C246.599 30.6027 247.601 29.6533 248.903 28.992C250.204 28.3307 251.74 28 253.511 28C254.812 28 255.911 28.2133 256.807 28.64C257.703 29.0453 258.545 29.664 259.335 30.496L259.367 21.632C259.367 21.0347 259.559 20.5653 259.943 20.224C260.327 19.8827 260.839 19.712 261.479 19.712C262.119 19.712 262.62 19.8827 262.983 20.224C263.367 20.544 263.559 21.0133 263.559 21.632V42.4C263.559 43.0187 263.367 43.4987 262.983 43.84C262.62 44.16 262.119 44.32 261.479 44.32C260.839 44.32 260.327 44.1493 259.943 43.808C259.559 43.4667 259.367 42.9973 259.367 42.4V41.76C257.937 43.4667 255.953 44.32 253.415 44.32ZM254.055 40.992C255.719 40.992 257.02 40.5653 257.959 39.712C258.897 38.8587 259.367 37.6747 259.367 36.16C259.367 34.6453 258.897 33.4613 257.959 32.608C257.02 31.7547 255.719 31.328 254.055 31.328C252.497 31.328 251.281 31.7547 250.407 32.608C249.532 33.4613 249.095 34.6453 249.095 36.16C249.095 37.6747 249.532 38.8587 250.407 39.712C251.281 40.5653 252.497 40.992 254.055 40.992Z" fill="black"/>
</svg>
