<svg width="200" height="46" viewBox="0 0 288 56" fill="none" xmlns="http://www.w3.org/2000/svg">
<path fill-rule="evenodd" clip-rule="evenodd" d="M30.7065 20.4185C29.0397 9.2456 32.8594 6.88327 36.0971 4.8812C37.9198 3.75353 39.5327 2.75613 39.5327 0H40.7231C40.7231 3.41427 38.8437 4.57687 36.7201 5.89013C33.7892 7.703 30.3309 9.84173 31.8832 20.2465L30.7065 20.4185Z" fill="#C2C3C2"/>
<path fill-rule="evenodd" clip-rule="evenodd" d="M29.4704 19.1948H33.0518C33.3185 19.1948 33.5363 19.4126 33.5363 19.6794V21.5207C33.5363 21.7872 33.3185 22.0055 33.0518 22.0055H29.4704C29.2039 22.0055 28.9858 21.7872 28.9858 21.5207V19.6794C28.9858 19.4126 29.2039 19.1948 29.4704 19.1948Z" fill="#656568"/>
<path fill-rule="evenodd" clip-rule="evenodd" d="M48.2529 15.6379C46.3162 15.7876 44.611 16.6139 45.1054 17.6961C45.4845 18.5258 47.3568 19.2571 49.6898 19.0502C51.5646 18.8837 53.1584 18.0784 52.7484 17.0281C52.4197 16.1856 50.5762 15.4582 48.2529 15.6379Z" fill="#3F3D45"/>
<path fill-rule="evenodd" clip-rule="evenodd" d="M12.9031 15.488C10.9667 15.6375 9.26126 16.4639 9.75586 17.5457C10.1347 18.3759 12.007 19.1072 14.3401 18.9003C16.2146 18.7336 17.8086 17.9287 17.3985 16.878C17.0699 16.0355 15.2263 15.3083 12.9031 15.488Z" fill="#3F3D45"/>
<path fill-rule="evenodd" clip-rule="evenodd" d="M9.88603 24.6156C9.65497 24.8381 9.46323 24.8789 9.3437 25.2069C9.08263 25.9235 9.05337 27.7132 8.66543 27.9947C8.54177 28.0842 8.42497 28.1122 8.29203 28.1791C7.38903 28.631 6.4111 29.4508 5.76877 30.1164C4.54543 31.3829 4.2433 32.5988 3.84137 34.0862L0.222565 48.0018C-1.46784 54.9549 6.87037 57.7705 11.8958 52.1309C13.2526 50.6081 16.2934 47.4127 17.2674 46.1761C17.521 46.3202 17.2692 46.1584 17.4403 46.3C18.2592 46.9783 18.7358 47.3463 20.0138 47.7874C22.4417 48.6262 25.0631 48.1392 26.9816 46.7374C27.8662 46.0916 28.2428 45.5166 28.8416 44.4371L33.5399 44.4368C33.9574 45.3504 34.5739 46.2647 35.3562 46.7799C37.4648 48.1702 39.7806 48.6054 42.4391 47.7513C43.9306 47.2722 44.5762 46.4604 45.1396 46.1449C45.3685 46.5506 49.8895 51.446 50.5428 52.1782C55.1835 57.3831 62.4454 54.7487 62.6212 50.1692C62.6573 49.2278 59.8634 39.1698 59.7395 38.6612C59.4557 37.4971 58.3561 33.0294 57.973 32.198C57.1123 30.3308 55.5397 28.8034 53.5108 27.9292C53.5108 27.3473 53.3396 26.6046 53.2401 26.1134C53.185 25.8406 53.1396 25.446 53.0525 25.207C52.9328 24.8791 52.7413 24.8383 52.5102 24.6158C49.7669 23.9945 47.5317 24.1823 45.2061 24.6059C44.5106 25.0152 44.5713 25.3115 44.4356 26.0802C44.327 26.6948 44.163 27.3664 44.1054 27.9292L18.9857 27.9358C18.5312 27.9383 18.407 27.9936 18.2521 27.7185L17.8878 25.6507C17.7963 25.0762 17.6562 24.8803 17.19 24.6059C15.1476 24.0843 12.8519 23.8117 9.88603 24.6156Z" fill="#656568"/>
<path fill-rule="evenodd" clip-rule="evenodd" d="M9.88603 17.6459C9.65497 17.9196 9.46323 17.9695 9.3437 18.3724C9.08263 19.2525 9.05337 21.4511 8.66543 21.7964C8.54177 21.9065 8.42497 21.9412 8.29203 22.0231C7.38903 22.5782 6.4111 23.5857 5.76877 24.4028C4.54543 25.9587 4.2433 27.4522 3.84137 29.2788L0.222565 46.3724C-1.46784 54.9129 6.87037 58.3711 11.8958 51.4443C13.2526 49.5739 16.2934 45.6487 17.2674 44.1296C17.521 44.3068 17.2692 44.1085 17.4403 44.2823C18.2592 45.1152 18.7358 45.5673 20.0138 46.1089C22.4417 47.1392 25.0631 46.5408 26.9816 44.8195C27.8662 44.0264 28.2428 43.3193 28.8416 41.9933H33.5399C33.9574 43.1153 34.5739 44.2385 35.3562 44.8716C37.4648 46.5792 39.7806 47.1139 42.4391 46.0647C43.9306 45.4761 44.5762 44.479 45.1396 44.0913C45.3685 44.5901 49.8895 50.6027 50.5428 51.5025C55.1835 57.8963 62.4454 54.6595 62.6212 49.0347C62.6573 47.8788 59.8634 35.5235 59.7395 34.8989C59.4557 33.4688 58.3561 27.9811 57.973 26.9599C57.1123 24.6663 55.5397 22.7897 53.5108 21.7164C53.5108 21.0015 53.3396 20.0889 53.2401 19.4856C53.185 19.1503 53.1396 18.666 53.0525 18.3725C52.9328 17.9695 52.7413 17.9197 52.5102 17.646C49.7669 16.8829 47.5317 17.1138 45.2061 17.6339C44.5106 18.1364 44.5713 18.5012 44.4356 19.4448C44.327 20.2002 44.163 21.0253 44.1054 21.7163L18.9857 21.7245C18.5312 21.7272 18.407 21.795 18.2521 21.4575L17.8878 18.9175C17.7963 18.2119 17.6562 17.971 17.19 17.6339C15.1476 16.9937 12.8519 16.6586 9.88603 17.6459Z" fill="#878E95"/>
<path fill-rule="evenodd" clip-rule="evenodd" d="M9.88593 17.6462C9.65486 17.9198 9.46313 17.9697 9.34359 18.3726C9.08253 19.2527 9.05326 21.4513 8.66533 21.7966C8.54166 21.9068 8.42486 21.9415 8.29193 22.0233C7.38893 22.5785 6.41099 23.5859 5.76866 24.4031C4.54533 25.959 4.24319 27.4525 3.84126 29.2791L0.22246 46.3727C-0.255473 48.7863 0.0683261 50.7936 0.891193 52.2758C5.25213 51.1417 10.1594 49.3195 15.2176 46.9959C16.0805 45.8357 16.8576 44.7695 17.2674 44.1299C17.5209 44.3071 17.2691 44.1087 17.4403 44.2825C17.8774 44.727 18.2174 45.0633 18.6331 45.3627C32.2417 38.5955 46.2704 28.5693 53.1495 18.8556C53.1224 18.6767 53.0915 18.5051 53.0523 18.3726C52.9326 17.9696 52.7411 17.9198 52.5101 17.6461C49.7667 16.883 47.5315 17.1139 45.2059 17.634C44.5104 18.1365 44.5711 18.5013 44.4355 19.4449C44.3268 20.2003 44.1628 21.0254 44.1053 21.7164L18.9855 21.7246C18.531 21.7273 18.4068 21.7951 18.2519 21.4576L17.8876 18.9176C17.7961 18.212 17.656 17.9711 17.1899 17.634C15.1475 16.9939 12.8518 16.6588 9.88593 17.6462Z" fill="#959DA4"/>
<path fill-rule="evenodd" clip-rule="evenodd" d="M21.7213 35.4988C19.4545 35.8912 17.4585 38.0541 18.0371 40.8876C18.4809 43.0604 20.6725 44.9755 23.4027 44.4334C25.5973 43.9976 27.4629 41.889 26.9828 39.1385C26.5981 36.9328 24.4406 35.0283 21.7213 35.4988Z" fill="#4E4D52"/>
<path fill-rule="evenodd" clip-rule="evenodd" d="M21.9009 36.5327C20.1576 36.8341 18.6223 38.498 19.0676 40.6771C19.4086 42.3481 21.094 43.8211 23.194 43.4037C24.8815 43.0689 26.3162 41.4475 25.9472 39.3319C25.6512 37.6356 23.9918 36.1709 21.9009 36.5327Z" fill="#0C050D"/>
<path fill-rule="evenodd" clip-rule="evenodd" d="M39.1724 35.4659C36.8627 35.8152 34.9085 37.9501 35.3382 40.7067C35.6859 42.9347 37.8286 44.8865 40.5545 44.4661C42.8147 44.1175 44.733 42.0234 44.3346 39.2811C44.0124 37.0643 41.8316 35.0639 39.1724 35.4659Z" fill="#4E4D52"/>
<path fill-rule="evenodd" clip-rule="evenodd" d="M43.0315 27.8241C40.0874 28.5838 41.3384 32.8863 44.1599 32.1259C46.951 31.3736 45.8201 27.1041 43.0315 27.8241Z" fill="#3F3D45"/>
<path fill-rule="evenodd" clip-rule="evenodd" d="M48.1185 22.6623C45.298 23.5674 46.6194 27.7709 49.4119 26.9065C52.2801 26.0187 50.8314 21.792 48.1185 22.6623Z" fill="#3F3D45"/>
<path fill-rule="evenodd" clip-rule="evenodd" d="M48.2761 33.0352C45.2828 33.8054 46.5444 38.0585 49.3554 37.331C50.3557 37.0721 51.285 35.9432 50.9002 34.5748C50.6313 33.6176 49.6108 32.692 48.2761 33.0352Z" fill="#3F3D45"/>
<path fill-rule="evenodd" clip-rule="evenodd" d="M53.3669 27.876C50.4763 28.763 51.8226 33.0158 54.7062 32.0873C55.6727 31.7763 56.45 30.6523 56.109 29.3653C55.8455 28.3691 54.676 27.4741 53.3669 27.876Z" fill="#3F3D45"/>
<path fill-rule="evenodd" clip-rule="evenodd" d="M15.3859 35.5492C15.5735 35.1066 15.4971 34.232 15.502 33.6274C15.5099 32.5752 15.5802 32.6512 15.0064 32.0916C13.9941 31.1053 13.805 30.5054 12.5483 31.7801C12.1385 32.1956 11.7813 32.3121 11.7555 33.0435C11.6478 36.1013 11.6994 35.6332 13.3509 35.6278C14.0073 35.6256 14.7608 35.7272 15.3859 35.5492Z" fill="#3F3D45"/>
<path fill-rule="evenodd" clip-rule="evenodd" d="M11.8259 24.4194C11.7328 24.8796 11.6425 27.044 11.8616 27.4518C11.8626 27.4518 13.1218 29.0699 13.8163 28.9077C14.1533 28.7474 15.3415 27.6124 15.445 27.3643C15.5965 27.0008 15.5168 24.8396 15.4352 24.4504C14.4029 24.2744 12.8941 24.3309 11.8259 24.4194Z" fill="#3F3D45"/>
<path fill-rule="evenodd" clip-rule="evenodd" d="M7.99841 28.7454C7.99841 32.4701 7.45114 31.8659 10.5669 31.8659C11.2927 31.8659 12.5342 30.4169 12.5468 30.0208C12.564 29.4758 12.0726 29.167 11.8021 28.8991C10.8015 27.9064 11.1269 28.136 8.56801 28.136C8.00354 28.136 7.99841 28.1812 7.99841 28.7454Z" fill="#3F3D45"/>
<path fill-rule="evenodd" clip-rule="evenodd" d="M16.724 31.8659L19.2175 31.8307L19.2649 28.7454C19.2632 27.8865 18.7994 28.136 16.6003 28.136C15.9444 28.136 14.7049 29.4522 14.7214 30.0238C14.7356 30.5248 15.2433 30.8587 15.509 31.1237C15.8926 31.5059 16.0189 31.8659 16.724 31.8659Z" fill="#3F3D45"/>
<path fill-rule="evenodd" clip-rule="evenodd" d="M24.3052 30.321C24.3052 30.9017 24.2587 30.9177 24.4603 31.3376C25.0931 31.4816 27.0028 31.5145 27.5358 31.2786C27.5773 30.9662 27.7081 29.8584 27.4849 29.6318C27.2931 29.4373 25.4262 29.5024 25.0946 29.5024C24.3406 29.5024 24.3052 29.5836 24.3052 30.321Z" fill="#3F3D45"/>
<path fill-rule="evenodd" clip-rule="evenodd" d="M34.7884 30.0208C34.7884 31.2051 34.6345 31.6379 35.3757 31.5903C35.7376 31.5667 36.1005 31.414 36.4579 31.2835L38.0286 30.7525C38.4266 30.5942 38.2953 30.7188 38.4209 30.4213C38.1701 30.1406 35.8359 29.5088 35.4669 29.451C34.8609 29.3563 34.7884 29.4438 34.7884 30.0208Z" fill="#3F3D45"/>
<path fill-rule="evenodd" clip-rule="evenodd" d="M39.2904 36.4392C37.5474 36.741 36.0124 38.4046 36.4574 40.5838C36.7988 42.2547 38.4843 43.7278 40.584 43.3111C42.2717 42.9755 43.7064 41.3542 43.3372 39.239C43.0414 37.5425 41.3818 36.0775 39.2904 36.4392Z" fill="#0C050D"/>
<path d="M86.1188 42.9204C82.8761 42.9204 80.3801 42.0244 78.6308 40.2324C76.8815 38.4404 76.0068 35.6564 76.0068 31.8804C76.0068 28.147 76.8815 25.3844 78.6308 23.5924C80.3801 21.779 82.8655 20.8724 86.0868 20.8724C88.6041 20.8724 90.9828 21.363 93.2228 22.3444V25.7364C92.0921 25.1817 90.9828 24.723 89.8948 24.3604C88.8068 23.9977 87.6868 23.8164 86.5348 23.8164C84.1881 23.8164 82.4388 24.4457 81.2868 25.7044C80.1348 26.963 79.5588 29.0217 79.5588 31.8804C79.5588 34.739 80.1348 36.7977 81.2868 38.0564C82.4601 39.315 84.1775 39.9444 86.4388 39.9444C87.9321 39.9444 89.2868 39.731 90.5028 39.3044V34.2164H86.0228V31.2084H94.0228V41.0004C91.5268 42.2804 88.8921 42.9204 86.1188 42.9204ZM104.753 43.0484C103.665 43.0484 102.619 42.899 101.617 42.6004C100.614 42.3017 99.7928 41.779 99.1528 41.0324C98.5128 40.2857 98.1928 39.2404 98.1928 37.8964C98.1928 36.1257 98.7048 34.8137 99.7288 33.9604C100.774 33.0857 102.203 32.6484 104.017 32.6484C105.062 32.6484 105.979 32.755 106.769 32.9684C107.579 33.1817 108.262 33.4484 108.817 33.7684V32.2644C108.817 31.1337 108.465 30.3124 107.761 29.8004C107.078 29.267 106.118 29.0004 104.881 29.0004C103.963 29.0004 103.025 29.1497 102.065 29.4484C101.126 29.7257 100.347 30.1204 99.7288 30.6324V27.4964C100.326 27.1124 101.19 26.7924 102.321 26.5364C103.451 26.2804 104.635 26.1524 105.873 26.1524C106.875 26.1524 107.857 26.3124 108.817 26.6324C109.798 26.9524 110.598 27.507 111.217 28.2964C111.857 29.0857 112.177 30.1524 112.177 31.4964L112.145 39.1764C112.145 40.2217 111.814 41.0217 111.153 41.5764C110.513 42.131 109.638 42.515 108.529 42.7284C107.419 42.9417 106.161 43.0484 104.753 43.0484ZM101.521 37.7364C101.521 38.3764 101.702 38.899 102.065 39.3044C102.427 39.6884 102.875 39.9764 103.409 40.1684C103.963 40.339 104.539 40.4244 105.137 40.4244C106.374 40.4244 107.291 40.339 107.889 40.1684C108.507 39.9764 108.817 39.5817 108.817 38.9844V35.8804C108.326 35.667 107.771 35.4964 107.153 35.3684C106.555 35.2404 105.915 35.1764 105.233 35.1764C102.758 35.1764 101.521 36.0297 101.521 37.7364ZM130.818 31.9444V42.5684H127.458V32.3924C127.458 31.859 127.362 31.3364 127.17 30.8244C126.978 30.3124 126.604 29.8857 126.05 29.5444C125.516 29.203 124.716 29.0324 123.65 29.0324C123.052 29.0324 122.466 29.0857 121.89 29.1924C121.335 29.299 120.791 29.4484 120.258 29.6404V42.5684H116.898V27.8164C117.836 27.3257 118.988 26.931 120.354 26.6324C121.74 26.3124 123.074 26.1524 124.354 26.1524C126.444 26.1524 128.002 26.5577 129.026 27.3684C129.879 26.963 130.764 26.6644 131.682 26.4724C132.599 26.259 133.506 26.1524 134.402 26.1524C136.663 26.1524 138.306 26.6324 139.33 27.5924C140.354 28.531 140.866 29.9817 140.866 31.9444V42.5684H137.506V32.3924C137.506 31.859 137.41 31.3364 137.218 30.8244C137.026 30.3124 136.652 29.8857 136.098 29.5444C135.564 29.203 134.764 29.0324 133.698 29.0324C132.588 29.0324 131.554 29.3204 130.594 29.8964C130.743 30.4937 130.818 31.1764 130.818 31.9444ZM152.528 43.0484C150.16 43.0484 148.272 42.3337 146.864 40.9044C145.478 39.4537 144.784 37.363 144.784 34.6324C144.784 31.8377 145.435 29.7257 146.736 28.2964C148.059 26.8457 149.894 26.1204 152.24 26.1204C153.968 26.1204 155.366 26.5044 156.432 27.2724C157.499 28.0404 158.267 29.1177 158.736 30.5044C159.227 31.8697 159.462 33.4697 159.44 35.3044H148.144C148.251 36.883 148.72 38.0884 149.552 38.9204C150.384 39.731 151.558 40.1364 153.072 40.1364C154.139 40.1364 155.11 40.0084 155.984 39.7524C156.88 39.475 157.638 39.1657 158.256 38.8244V41.9604C157.488 42.3017 156.635 42.5684 155.696 42.7604C154.758 42.9524 153.702 43.0484 152.528 43.0484ZM152.144 28.8724C151.056 28.8724 150.182 29.1604 149.52 29.7364C148.859 30.291 148.432 31.315 148.24 32.8084H156.016C155.888 31.443 155.504 30.451 154.864 29.8324C154.246 29.1924 153.339 28.8724 152.144 28.8724ZM163.304 42.5684V27.9764C163.581 27.8057 164.093 27.5817 164.84 27.3044C165.586 27.0057 166.461 26.739 167.464 26.5044C168.488 26.2697 169.533 26.1524 170.6 26.1524C171.133 26.1524 171.57 26.195 171.912 26.2804C172.253 26.3657 172.541 26.4617 172.776 26.5684V29.2564C171.816 29.107 170.77 29.0644 169.64 29.1284C168.509 29.1924 167.517 29.299 166.664 29.4484V42.5684H163.304ZM176.245 42.5684V21.2244H179.765V30.4084H189.621V21.2244H193.173V42.5684H189.621V33.4804H179.765V42.5684H176.245ZM204.934 43.0484C202.331 43.0484 200.39 42.3124 199.11 40.8404C197.851 39.3684 197.222 37.267 197.222 34.5364C197.222 31.6564 197.872 29.5337 199.174 28.1684C200.496 26.803 202.406 26.1204 204.902 26.1204C207.526 26.1204 209.478 26.8564 210.758 28.3284C212.038 29.779 212.678 31.8484 212.678 34.5364C212.678 37.2457 212.006 39.347 210.662 40.8404C209.318 42.3124 207.408 43.0484 204.934 43.0484ZM204.902 40.2004C206.523 40.2004 207.664 39.6777 208.326 38.6324C208.987 37.587 209.318 36.2217 209.318 34.5364C209.318 32.7017 208.976 31.315 208.294 30.3764C207.611 29.4164 206.48 28.9364 204.902 28.9364C203.28 28.9364 202.15 29.4377 201.51 30.4404C200.87 31.4217 200.55 32.787 200.55 34.5364C200.55 36.307 200.88 37.6937 201.542 38.6964C202.203 39.699 203.323 40.2004 204.902 40.2004ZM223.434 43.0484C220.831 43.0484 218.89 42.3124 217.61 40.8404C216.351 39.3684 215.722 37.267 215.722 34.5364C215.722 31.6564 216.372 29.5337 217.674 28.1684C218.996 26.803 220.906 26.1204 223.402 26.1204C226.026 26.1204 227.978 26.8564 229.258 28.3284C230.538 29.779 231.178 31.8484 231.178 34.5364C231.178 37.2457 230.506 39.347 229.162 40.8404C227.818 42.3124 225.908 43.0484 223.434 43.0484ZM223.402 40.2004C225.023 40.2004 226.164 39.6777 226.826 38.6324C227.487 37.587 227.818 36.2217 227.818 34.5364C227.818 32.7017 227.476 31.315 226.794 30.3764C226.111 29.4164 224.98 28.9364 223.402 28.9364C221.78 28.9364 220.65 29.4377 220.01 30.4404C219.37 31.4217 219.05 32.787 219.05 34.5364C219.05 36.307 219.38 37.6937 220.042 38.6964C220.703 39.699 221.823 40.2004 223.402 40.2004ZM242.158 43.0484C241.176 43.0484 240.216 42.9204 239.278 42.6644C238.339 42.4297 237.486 42.003 236.718 41.3844C235.971 40.7444 235.363 39.859 234.894 38.7284C234.446 37.5977 234.222 36.1364 234.222 34.3444C234.222 31.827 234.84 29.8324 236.078 28.3604C237.315 26.867 239.192 26.1204 241.71 26.1204C242.2 26.1204 242.83 26.195 243.598 26.3444C244.366 26.4937 245.08 26.7177 245.742 27.0164V19.7844H249.07V39.1764C249.07 39.859 248.856 40.4457 248.43 40.9364C248.024 41.427 247.48 41.8324 246.798 42.1524C246.115 42.451 245.368 42.675 244.558 42.8244C243.747 42.9737 242.947 43.0484 242.158 43.0484ZM242.254 40.1364C243.214 40.1364 244.035 40.019 244.718 39.7844C245.4 39.5497 245.742 39.2404 245.742 38.8564V29.9284C245.187 29.6084 244.59 29.3737 243.95 29.2244C243.331 29.075 242.744 29.0004 242.19 29.0004C240.611 29.0004 239.459 29.4697 238.734 30.4084C238.008 31.3257 237.646 32.659 237.646 34.4084C237.646 35.475 237.774 36.4457 238.03 37.3204C238.286 38.1737 238.744 38.8564 239.406 39.3684C240.088 39.8804 241.038 40.1364 242.254 40.1364Z" fill="black"/>
</svg>
